<svg width="202" height="40" viewBox="0 0 202 40" fill="none" xmlns="http://www.w3.org/2000/svg">
<g clip-path="url(#clip0)">
<circle cx="20" cy="20" r="20" fill="#543EEE"/>
<path d="M54.07 13.784C55.981 13.784 57.58 12.185 57.58 10.274C57.58 8.363 55.981 6.764 54.07 6.764C52.159 6.764 50.56 8.363 50.56 10.274C50.56 12.185 52.159 13.784 54.07 13.784ZM51.145 35H56.995V15.5H51.145V35ZM74.6529 14.954C72.0789 14.954 70.1289 15.89 69.0759 17.333V15.5H63.2259V35H69.0759V24.353C69.0759 21.584 70.5579 20.336 72.7029 20.336C74.5749 20.336 76.0959 21.467 76.0959 23.885V35H81.9459V23.027C81.9459 17.762 78.5919 14.954 74.6529 14.954ZM99.3402 21.116V15.5H95.3232V10.04L89.4732 11.795V15.5H86.3532V21.116H89.4732V28.019C89.4732 33.479 91.6962 35.78 99.3402 35V29.696C96.7662 29.852 95.3232 29.696 95.3232 28.019V21.116H99.3402ZM109.448 27.59H123.293C123.449 26.849 123.527 26.069 123.527 25.25C123.527 19.361 119.315 14.954 113.621 14.954C107.459 14.954 103.247 19.439 103.247 25.25C103.247 31.061 107.381 35.546 114.05 35.546C117.755 35.546 120.641 34.181 122.552 31.529L117.872 28.838C117.092 29.696 115.727 30.32 114.128 30.32C111.983 30.32 110.189 29.618 109.448 27.59ZM109.331 23.222C109.877 21.233 111.359 20.141 113.582 20.141C115.337 20.141 117.092 20.96 117.716 23.222H109.331ZM128.795 35H134.645V6.53H128.795V35ZM157.996 20.843C159.478 19.556 160.375 17.762 160.375 15.5C160.375 10.781 156.514 7.7 151.756 7.7H141.07V35H152.536C157.411 35 161.35 31.841 161.35 27.005C161.35 24.236 160.024 22.13 157.996 20.843ZM151.756 13.55C153.199 13.55 154.135 14.564 154.135 15.968C154.135 17.372 153.16 18.386 151.756 18.386H147.31V13.55H151.756ZM152.536 29.15H147.31V23.924H152.536C154.096 23.924 155.11 25.016 155.11 26.537C155.11 28.058 154.096 29.15 152.536 29.15ZM169.135 13.784C171.046 13.784 172.645 12.185 172.645 10.274C172.645 8.363 171.046 6.764 169.135 6.764C167.224 6.764 165.625 8.363 165.625 10.274C165.625 12.185 167.224 13.784 169.135 13.784ZM166.21 35H172.06V15.5H166.21V35ZM185.545 29.54L192.916 19.4V15.5H178.096V20.96H185.077L177.706 31.1V35H193.306V29.54H185.545Z" fill="white"/>
</g>
<defs>
<clipPath id="clip0">
<rect width="202" height="40" fill="white"/>
</clipPath>
</defs>
</svg>
