<svg width="163" height="36" viewBox="0 0 163 36" fill="none" xmlns="http://www.w3.org/2000/svg">
<g clip-path="url(#clip0)">
<path d="M4.95775 10.5884C3.91954 7.65576 5.19615 5 5.84471 5C6.38304 5 6.73424 5.79468 6.73424 5.79468L5.89855 10.5243L4.95775 10.5884Z" fill="#DBD9DC"/>
<path d="M8.5133 14.449C8.28515 14.3849 8.10571 14.208 8.04162 13.9824C7.86218 13.3544 7.47253 12.0624 7.03674 11.0985C6.94189 10.8909 6.97265 10.6525 7.09826 10.4602C8.28002 8.67602 8.35693 6.44324 7.96728 5.68701C7.50585 4.7898 6.75732 5.1897 6.10107 6.79443C5.73449 7.69165 5.73449 8.81189 5.83959 9.75781C5.87548 10.0808 5.62426 10.3602 5.2987 10.3756C4.28356 10.4192 3.52221 10.6115 3.0736 10.9908C2.61474 11.3779 1.24328 12.8545 1.63037 13.6158C1.81237 13.9722 2.14562 14.1234 2.46862 14.1516C2.70703 14.7104 3.13513 15.0411 3.59143 15.1078L3.54528 15.2462C2.27636 18.8018 4.77319 21.6472 5.87036 22.7649C7.03161 23.9467 7.03161 24.6439 7.03161 24.6439H6.71374C6.40356 24.6439 6.13183 24.8567 6.05749 25.1592L5.89855 25.7898C5.87292 25.8975 5.95239 26 6.06262 26H7.04699C7.38281 26 7.69555 25.8359 7.88525 25.5591C8.20312 25.0951 8.63891 24.2825 8.72863 23.2263C8.77477 22.7111 9.21826 22.324 9.73608 22.3573L9.90014 22.4009C9.88732 23.0341 10.1283 23.8544 10.8896 24.6439H10.4385C10.1283 24.6439 9.85656 24.8567 9.78222 25.1592L9.62328 25.7898C9.59765 25.8975 9.67712 26 9.78735 26H17.4778L18.1545 23.6288C17.1394 17.1945 10.1873 14.9155 8.5133 14.449Z" fill="#EDEBED"/>
<path d="M4.82959 12.2828C4.82959 12.5623 4.60144 12.7904 4.32202 12.7904C4.04004 12.7904 3.81445 12.5623 3.81445 12.2828C3.81445 12.0009 4.04004 11.7753 4.32202 11.7753C4.60144 11.7753 4.82959 12.0009 4.82959 12.2828Z" fill="#4B3F4E"/>
<path d="M6.40613 21.2371C5.77039 20.2629 4.52197 18.507 5.56018 16.5997C5.99597 15.7974 6.18567 15.2437 6.25488 14.8694C6.30615 14.6002 6.00366 14.4054 5.77808 14.5592C5.23975 14.9283 4.32459 15.3206 3.57092 15.1719L3.54529 15.2462C2.27637 18.8018 4.77319 21.6472 5.87036 22.7649C7.03162 23.9467 7.03162 24.6439 7.03162 24.6439C7.03162 24.6439 7.65198 23.1443 6.40613 21.2371Z" fill="#DBD9DC"/>
<path d="M3.81189 14.2234C3.7478 14.0465 3.55298 13.9568 3.37866 14.0183C3.37097 14.0209 2.95312 14.1849 2.46863 14.1516C2.48401 14.1542 2.45325 14.1516 2.46863 14.1516C2.58655 14.4259 2.75061 14.6438 2.94031 14.8053C3.31201 14.7592 3.58374 14.6643 3.60681 14.6566C3.78369 14.5925 3.87598 14.3977 3.81189 14.2234Z" fill="#C9C6CA"/>
<path d="M1.63036 13.6158C1.73802 13.8286 1.89952 13.9645 2.08153 14.0491C2.18407 13.944 2.25072 13.7979 2.25072 13.6364C2.25072 13.3159 1.99694 13.057 1.68419 13.057C1.65343 13.057 1.62523 13.0596 1.59447 13.0647C1.54833 13.2698 1.55089 13.4569 1.63036 13.6158Z" fill="#FFAAB4"/>
<path d="M9.73608 22.3573L9.89758 22.3983C9.92322 21.5934 10.377 20.9705 10.6846 20.6372C10.8179 20.4937 10.7461 20.2552 10.5538 20.2117C9.91296 20.063 8.74915 20.2091 8.72864 23.2263C8.73376 22.7111 9.21826 22.324 9.73608 22.3573Z" fill="#DBD9DC"/>
<path d="M12.8379 24.0697C12.7738 24.0056 12.6892 23.9697 12.5969 23.9723C12.1278 23.9749 10.5948 23.9236 9.98987 23.1033C10.1155 23.5903 10.3872 24.1235 10.8896 24.6465H12.5995C12.8994 24.6439 13.0507 24.2825 12.8379 24.0697Z" fill="#DBD9DC"/>
<path d="M19.3517 23.3596C19.0184 22.6803 18.3647 22.8239 17.9546 23.1776C17.0728 23.939 16.3447 26 16.3447 26H18.2981C18.5596 26 18.798 25.8513 18.9108 25.6129C19.1851 25.0233 19.6234 23.9159 19.3517 23.3596Z" fill="#DBD9DC"/>
</g>
<path d="M33.592 14.504C33.976 13.88 34.528 13.376 35.248 12.992C35.968 12.608 36.792 12.416 37.72 12.416C38.824 12.416 39.824 12.696 40.72 13.256C41.616 13.816 42.32 14.616 42.832 15.656C43.36 16.696 43.624 17.904 43.624 19.28C43.624 20.656 43.36 21.872 42.832 22.928C42.32 23.968 41.616 24.776 40.72 25.352C39.824 25.912 38.824 26.192 37.72 26.192C36.776 26.192 35.952 26.008 35.248 25.64C34.544 25.256 33.992 24.752 33.592 24.128V26H29.488V8.24H33.592V14.504ZM39.448 19.28C39.448 18.256 39.16 17.456 38.584 16.88C38.024 16.288 37.328 15.992 36.496 15.992C35.68 15.992 34.984 16.288 34.408 16.88C33.848 17.472 33.568 18.28 33.568 19.304C33.568 20.328 33.848 21.136 34.408 21.728C34.984 22.32 35.68 22.616 36.496 22.616C37.312 22.616 38.008 22.32 38.584 21.728C39.16 21.12 39.448 20.304 39.448 19.28ZM49.0411 11.216C48.3211 11.216 47.7291 11.008 47.2651 10.592C46.8171 10.16 46.5931 9.632 46.5931 9.008C46.5931 8.368 46.8171 7.84 47.2651 7.424C47.7291 6.992 48.3211 6.776 49.0411 6.776C49.7451 6.776 50.3211 6.992 50.7691 7.424C51.2331 7.84 51.4651 8.368 51.4651 9.008C51.4651 9.632 51.2331 10.16 50.7691 10.592C50.3211 11.008 49.7451 11.216 49.0411 11.216ZM51.0811 12.608V26H46.9771V12.608H51.0811ZM59.0952 22.616H64.9032V26H54.5112V22.736L60.0792 15.992H54.5592V12.608H64.7832V15.872L59.0952 22.616ZM76.9534 26L73.4494 19.64H72.4654V26H68.3614V9.152H75.2494C76.5774 9.152 77.7054 9.384 78.6334 9.848C79.5774 10.312 80.2814 10.952 80.7454 11.768C81.2094 12.568 81.4414 13.464 81.4414 14.456C81.4414 15.576 81.1214 16.576 80.4814 17.456C79.8574 18.336 78.9294 18.96 77.6974 19.328L81.5854 26H76.9534ZM72.4654 16.736H75.0094C75.7614 16.736 76.3214 16.552 76.6894 16.184C77.0734 15.816 77.2654 15.296 77.2654 14.624C77.2654 13.984 77.0734 13.48 76.6894 13.112C76.3214 12.744 75.7614 12.56 75.0094 12.56H72.4654V16.736ZM84.4017 19.28C84.4017 17.904 84.6577 16.696 85.1697 15.656C85.6977 14.616 86.4097 13.816 87.3057 13.256C88.2017 12.696 89.2017 12.416 90.3057 12.416C91.2497 12.416 92.0737 12.608 92.7777 12.992C93.4977 13.376 94.0497 13.88 94.4337 14.504V12.608H98.5377V26H94.4337V24.104C94.0337 24.728 93.4737 25.232 92.7537 25.616C92.0497 26 91.2257 26.192 90.2817 26.192C89.1937 26.192 88.2017 25.912 87.3057 25.352C86.4097 24.776 85.6977 23.968 85.1697 22.928C84.6577 21.872 84.4017 20.656 84.4017 19.28ZM94.4337 19.304C94.4337 18.28 94.1457 17.472 93.5697 16.88C93.0097 16.288 92.3217 15.992 91.5057 15.992C90.6897 15.992 89.9937 16.288 89.4177 16.88C88.8577 17.456 88.5777 18.256 88.5777 19.28C88.5777 20.304 88.8577 21.12 89.4177 21.728C89.9937 22.32 90.6897 22.616 91.5057 22.616C92.3217 22.616 93.0097 22.32 93.5697 21.728C94.1457 21.136 94.4337 20.328 94.4337 19.304ZM106.811 14.504C107.195 13.88 107.747 13.376 108.467 12.992C109.187 12.608 110.011 12.416 110.939 12.416C112.043 12.416 113.043 12.696 113.939 13.256C114.835 13.816 115.539 14.616 116.051 15.656C116.579 16.696 116.843 17.904 116.843 19.28C116.843 20.656 116.579 21.872 116.051 22.928C115.539 23.968 114.835 24.776 113.939 25.352C113.043 25.912 112.043 26.192 110.939 26.192C109.995 26.192 109.171 26.008 108.467 25.64C107.763 25.256 107.211 24.752 106.811 24.128V26H102.707V8.24H106.811V14.504ZM112.667 19.28C112.667 18.256 112.379 17.456 111.803 16.88C111.243 16.288 110.547 15.992 109.715 15.992C108.899 15.992 108.203 16.288 107.627 16.88C107.067 17.472 106.787 18.28 106.787 19.304C106.787 20.328 107.067 21.136 107.627 21.728C108.203 22.32 108.899 22.616 109.715 22.616C110.531 22.616 111.227 22.32 111.803 21.728C112.379 21.12 112.667 20.304 112.667 19.28ZM124.3 14.504C124.684 13.88 125.236 13.376 125.956 12.992C126.676 12.608 127.5 12.416 128.428 12.416C129.532 12.416 130.532 12.696 131.428 13.256C132.324 13.816 133.028 14.616 133.54 15.656C134.068 16.696 134.332 17.904 134.332 19.28C134.332 20.656 134.068 21.872 133.54 22.928C133.028 23.968 132.324 24.776 131.428 25.352C130.532 25.912 129.532 26.192 128.428 26.192C127.484 26.192 126.66 26.008 125.956 25.64C125.252 25.256 124.7 24.752 124.3 24.128V26H120.196V8.24H124.3V14.504ZM130.156 19.28C130.156 18.256 129.868 17.456 129.292 16.88C128.732 16.288 128.036 15.992 127.204 15.992C126.388 15.992 125.692 16.288 125.116 16.88C124.556 17.472 124.276 18.28 124.276 19.304C124.276 20.328 124.556 21.136 125.116 21.728C125.692 22.32 126.388 22.616 127.204 22.616C128.02 22.616 128.716 22.32 129.292 21.728C129.868 21.12 130.156 20.304 130.156 19.28ZM139.749 11.216C139.029 11.216 138.437 11.008 137.973 10.592C137.525 10.16 137.301 9.632 137.301 9.008C137.301 8.368 137.525 7.84 137.973 7.424C138.437 6.992 139.029 6.776 139.749 6.776C140.453 6.776 141.029 6.992 141.477 7.424C141.941 7.84 142.173 8.368 142.173 9.008C142.173 9.632 141.941 10.16 141.477 10.592C141.029 11.008 140.453 11.216 139.749 11.216ZM141.789 12.608V26H137.685V12.608H141.789ZM153.427 22.52V26H151.339C149.851 26 148.691 25.64 147.859 24.92C147.027 24.184 146.611 22.992 146.611 21.344V16.016H144.979V12.608H146.611V9.344H150.715V12.608H153.403V16.016H150.715V21.392C150.715 21.792 150.811 22.08 151.003 22.256C151.195 22.432 151.515 22.52 151.963 22.52H153.427Z" fill="white"/>
<defs>
<clipPath id="clip0">
<rect width="21" height="21" fill="white" transform="translate(0 5)"/>
</clipPath>
</defs>
</svg>
